<svg width="155" height="24" viewBox="0 0 155 24" fill="none" xmlns="http://www.w3.org/2000/svg">
<path d="M8.44234 19.2955C3.9679 19.2955 0.970869 16.003 0.970869 11.5918C0.970869 7.07519 4.07343 3.93042 8.42124 3.93042C12.5158 3.93042 15.3229 6.71639 14.7108 10.431H12.0726C12.4736 7.85611 10.9328 6.16764 8.44234 6.16764C5.55084 6.16764 3.6091 8.51039 3.6091 11.5918C3.6091 14.7788 5.61416 17.0583 8.46345 17.0583C10.7429 17.0583 12.2836 15.5597 12.6846 13.4914H15.3862C14.9007 16.9527 12.2203 19.2955 8.44234 19.2955ZM22.0929 19.2955C18.8637 19.2955 16.7109 17.0583 16.7109 13.7235C16.7109 10.3888 18.8637 8.15159 22.0929 8.15159C25.301 8.15159 27.4749 10.3888 27.4749 13.7235C27.4749 17.0583 25.301 19.2955 22.0929 19.2955ZM22.0929 17.1849C23.8025 17.1849 24.9633 15.813 24.9633 13.7235C24.9633 11.6341 23.8025 10.2622 22.0929 10.2622C20.3622 10.2622 19.2225 11.6341 19.2225 13.7235C19.2225 15.813 20.3622 17.1849 22.0929 17.1849ZM37.1465 4.2259H39.5525V19H37.1465V17.4382C36.3444 18.6201 35.0992 19.2955 33.5585 19.2955C30.7725 19.2955 28.8097 17.0794 28.8097 13.7235C28.8097 10.3888 30.7514 8.15159 33.5585 8.15159C35.0992 8.15159 36.3444 8.82698 37.1465 10.0089V4.2259ZM34.2972 17.1849C36.0701 17.1849 37.252 15.813 37.252 13.7235C37.252 11.6341 36.0701 10.2622 34.2972 10.2622C32.5032 10.2622 31.3213 11.6341 31.3213 13.7235C31.3213 15.813 32.5032 17.1849 34.2972 17.1849ZM49.2555 15.6653H51.8726C51.2605 17.8814 49.3821 19.2955 46.7439 19.2955C43.4514 19.2955 41.3619 17.0794 41.3619 13.7235C41.3619 10.3677 43.4725 8.15159 46.8072 8.15159C50.5218 8.15159 52.4424 10.9376 51.4294 14.3989H43.9157C44.1267 16.1507 45.0976 17.1849 46.7861 17.1849C47.968 17.1849 48.8967 16.6361 49.2555 15.6653ZM46.765 10.1778C45.182 10.1778 44.2112 11.0642 43.9579 12.6893H49.1499C49.2977 11.1697 48.4323 10.1778 46.765 10.1778Z" fill="black"/>
<path d="M59.9199 12.0864H70.6459" stroke="#FF4D00" stroke-width="1.90299" stroke-linecap="round"/>
<path d="M70.6455 12.0865H81.3714" stroke="#FF4D00" stroke-width="1.90299" stroke-linecap="round"/>
<path d="M70.732 22.8124V1.18758" stroke="#FF4D00" stroke-width="1.90299" stroke-linecap="round"/>
<path d="M65.8019 16.9303L75.6494 7.08289" stroke="#FF4D00" stroke-width="1.90299" stroke-linecap="round"/>
<path d="M65.8019 7.06941L75.6494 16.9169" stroke="#FF4D00" stroke-width="1.90299" stroke-linecap="round"/>
<path d="M100.216 6.3787H92.5759V10.6632H99.0976V12.816H92.5759V19H90.0221V4.2259H100.216V6.3787ZM103.231 6.92745C102.365 6.92745 101.69 6.25206 101.69 5.38672C101.69 4.52138 102.365 3.84599 103.231 3.84599C104.096 3.84599 104.771 4.52138 104.771 5.38672C104.771 6.25206 104.096 6.92745 103.231 6.92745ZM102.006 19V8.44707H104.412V19H102.006ZM111.745 19.2955C108.515 19.2955 106.363 17.0583 106.363 13.7235C106.363 10.3677 108.494 8.15159 111.829 8.15159C115.164 8.15159 117.211 10.3888 116.43 13.5969H114.003C114.404 11.5074 113.539 10.2622 111.808 10.2622C109.993 10.2622 108.874 11.6341 108.874 13.7235C108.874 15.813 110.014 17.1849 111.766 17.1849C113.032 17.1849 113.919 16.4251 114.362 15.2432H116.958C116.451 17.4382 114.678 19.2955 111.745 19.2955ZM125.14 10.5366H122.122V15.6653C122.122 16.5306 122.333 17.1849 123.494 17.1849C124.042 17.1849 124.464 17.0372 124.908 16.805V18.9156C124.443 19.1477 123.789 19.2955 123.029 19.2955C119.884 19.2955 119.716 16.8261 119.716 15.6864V10.5366H117.711V8.44707H119.716V5.63999H122.122V8.44707H125.14V10.5366ZM128.046 6.92745C127.181 6.92745 126.506 6.25206 126.506 5.38672C126.506 4.52138 127.181 3.84599 128.046 3.84599C128.912 3.84599 129.587 4.52138 129.587 5.38672C129.587 6.25206 128.912 6.92745 128.046 6.92745ZM126.822 19V8.44707H129.228V19H126.822ZM136.561 19.2955C133.331 19.2955 131.179 17.0583 131.179 13.7235C131.179 10.3888 133.331 8.15159 136.561 8.15159C139.769 8.15159 141.942 10.3888 141.942 13.7235C141.942 17.0583 139.769 19.2955 136.561 19.2955ZM136.561 17.1849C138.27 17.1849 139.431 15.813 139.431 13.7235C139.431 11.6341 138.27 10.2622 136.561 10.2622C134.83 10.2622 133.69 11.6341 133.69 13.7235C133.69 15.813 134.83 17.1849 136.561 17.1849ZM149.736 8.15159C153.134 8.15159 153.134 11.5074 153.134 13.0904V19H150.728V13.1537C150.728 11.9506 150.728 10.2411 148.87 10.2411C147.266 10.2411 146.148 11.6763 146.148 13.8291V19H143.742V8.44707H146.148V10.3888C146.844 8.99582 148.132 8.15159 149.736 8.15159Z" fill="black"/>
</svg>
